<svg xmlns="http://www.w3.org/2000/svg" width="36" height="36" viewBox="0 0 36 36" fill="none">
  <path fill-rule="evenodd" clip-rule="evenodd" d="M13.7291 7.46604C14.9911 5.37296 16.6295 4.5 18 4.5C19.3568 4.5 20.9991 5.31556 22.269 7.3984C22.6111 7.95949 22.9277 8.61384 23.2075 9.37281C24.2561 9.14054 25.1921 9.0246 26.0227 9.00108C28.6253 8.92737 30.3101 9.76971 31.0253 10.9269C31.7452 12.0916 31.7378 13.8931 30.3623 15.9925C29.9428 16.6327 29.3922 17.309 28.6863 18.0169C29.3569 18.6973 29.8872 19.3499 30.2975 19.9696C31.6852 22.0654 31.7531 23.8942 31.0253 25.0719C30.3168 26.2181 28.6854 27.0939 26.0885 27.0317C25.2418 27.0114 24.282 26.8923 23.1995 26.6477C22.9217 27.3974 22.6079 28.0446 22.269 28.6003C20.9991 30.6831 19.3568 31.4987 18 31.4987C16.6295 31.4987 14.9911 30.6257 13.7291 28.5327C13.4018 27.9897 13.0976 27.3624 12.8267 26.6417C11.7334 26.8904 10.765 27.0112 9.91153 27.0317C7.31458 27.0939 5.6832 26.2181 4.97473 25.0719L5.57868 24.6986L4.97472 25.0719C4.24689 23.8942 4.31483 22.0654 5.70247 19.9696C6.11281 19.3499 6.64309 18.6973 7.31376 18.0169C6.60778 17.309 6.05724 16.6327 5.63775 15.9925C4.26224 13.8931 4.25483 12.0916 4.97466 10.9269L4.97467 10.9269C5.68992 9.76971 7.37466 8.92737 9.97732 9.00108C10.8148 9.0248 11.7595 9.14247 12.8186 9.37861C13.0915 8.64887 13.3985 8.01443 13.7291 7.46604ZM12.3823 10.7377C11.4572 10.5385 10.6446 10.4415 9.93709 10.4215C7.60202 10.3554 6.52671 11.1186 6.18341 11.674C5.84473 12.222 5.64517 13.411 6.82633 15.2137C7.19414 15.7751 7.69175 16.3871 8.34991 17.0435C9.26642 16.2417 10.3766 15.4069 11.7103 14.5462C11.852 13.0938 12.0835 11.831 12.3823 10.7377ZM13.2527 13.5988C13.3842 12.6589 13.5569 11.8255 13.7596 11.0883C14.5319 11.3132 15.3691 11.602 16.2741 11.9653C15.794 12.2041 15.3008 12.4597 14.7943 12.7329C14.2549 13.0239 13.7414 13.3126 13.2527 13.5988ZM11.5867 16.3368C10.7487 16.9158 10.0253 17.4749 9.40305 18.0109C10.0252 18.5412 10.7487 19.0953 11.5871 19.6706C11.5643 19.1357 11.5525 18.5789 11.5525 17.9993C11.5525 17.4229 11.5642 16.869 11.5867 16.3368ZM13.0661 20.6318C13.006 19.8206 12.9735 18.9445 12.9735 17.9993C12.9735 17.0554 13.0059 16.1805 13.0658 15.3701C13.7956 14.9177 14.5947 14.455 15.4688 13.9836L15.4688 13.9836C16.359 13.5035 17.2022 13.0816 18 12.7123C18.7978 13.0816 19.641 13.5035 20.5312 13.9836L20.8684 13.3583L20.5312 13.9836C21.4065 14.4557 22.2066 14.919 22.9372 15.372C22.9952 16.1811 23.0265 17.0553 23.0265 17.9993C23.0265 18.9447 22.9951 19.82 22.937 20.63C22.2067 21.0809 21.4067 21.5431 20.5313 22.0152C19.6398 22.496 18.7967 22.9189 18 23.2894C17.2034 22.9189 16.3603 22.496 15.4688 22.0152C14.5946 21.5437 13.7956 21.0822 13.0661 20.6318ZM11.7108 21.4577C10.379 20.6026 9.27075 19.7763 8.35544 18.9843C7.72973 19.6158 7.24894 20.2079 6.88729 20.7541C5.6764 22.5829 5.85279 23.7897 6.18347 24.3248C6.53354 24.8912 7.57853 25.6661 9.8775 25.6111C10.5977 25.5938 11.4314 25.4943 12.3885 25.2837C12.0871 24.1864 11.8535 22.918 11.7108 21.4577ZM13.7642 24.927C13.5596 24.1861 13.3854 23.3476 13.2529 22.4013C13.7414 22.6867 14.2548 22.975 14.7943 23.2659C15.3038 23.5407 15.7995 23.7979 16.2816 24.0383C15.3736 24.4061 14.5357 24.6987 13.7642 24.927ZM14.2088 26.2774C14.4372 26.8638 14.6862 27.368 14.946 27.7989C16.0233 29.5856 17.2534 30.0777 18 30.0777C18.7602 30.0777 19.9865 29.6144 21.0558 27.8606C21.3247 27.4194 21.5824 26.898 21.8175 26.2851C20.6675 25.944 19.398 25.4741 18 24.8508C16.6127 25.4693 15.3518 25.9369 14.2088 26.2774ZM19.7185 24.0383C20.634 24.4091 21.4782 24.7036 22.255 24.9327C22.4559 24.1903 22.6267 23.3485 22.7561 22.3961C22.2649 22.6832 21.7485 22.9732 21.2058 23.2659C20.6962 23.5407 20.2006 23.7979 19.7185 24.0383ZM24.2942 21.4545C24.1551 22.9207 23.9266 24.1911 23.6309 25.2879C24.5799 25.4956 25.4072 25.5939 26.1225 25.6111C28.4215 25.6661 29.4664 24.8912 29.8165 24.3248C30.1472 23.7897 30.3236 22.5829 29.1127 20.7541C28.7511 20.2079 28.2703 19.6158 27.6446 18.9843C26.7304 19.7753 25.6237 20.6005 24.2942 21.4545ZM27.6501 17.0435C28.3083 16.3871 28.8059 15.7751 29.1737 15.2137C30.3548 13.411 30.1553 12.222 29.8166 11.674C29.4733 11.1186 28.398 10.3554 26.0629 10.4215C25.3604 10.4414 24.5541 10.5372 23.6371 10.7335C23.9301 11.8265 24.1566 13.0912 24.2947 14.5494C25.6262 15.409 26.7347 16.2427 27.6501 17.0435ZM24.4144 16.3376C25.2519 16.9163 25.975 17.4752 26.597 18.0109C25.9751 18.5409 25.2519 19.0948 24.414 19.6698C24.4361 19.1355 24.4475 18.5789 24.4475 17.9993C24.4475 17.4229 24.4362 16.8692 24.4144 16.3376ZM22.7563 13.604C22.6278 12.6582 22.4585 11.8214 22.2595 11.0827C21.4819 11.3085 20.6384 11.599 19.7259 11.9653C20.206 12.2041 20.6992 12.4597 21.2057 12.7329C21.7484 13.0256 22.265 13.3161 22.7563 13.604ZM18 11.1523C16.6137 10.5377 15.3502 10.074 14.2026 9.73728C14.4327 9.14402 14.6839 8.63456 14.946 8.19975C16.0233 6.41309 17.2534 5.92098 18 5.92098C18.7602 5.92098 19.9865 6.38431 21.0558 8.13813C21.3271 8.58309 21.5868 9.1098 21.8236 9.72961C20.669 10.067 19.3969 10.533 18 11.1523Z" fill="url(#paint0_linear_6291_11580)"/>
  <defs>
    <linearGradient id="paint0_linear_6291_11580" x1="7.5" y1="6.5" x2="32" y2="29" gradientUnits="userSpaceOnUse">
      <stop stop-color="#082B25"/>
      <stop offset="0.610549" stop-color="#4E5887"/>
      <stop offset="1" stop-color="#9245E6"/>
    </linearGradient>
  </defs>
</svg>